<svg xmlns="http://www.w3.org/2000/svg" xmlns:xlink="http://www.w3.org/1999/xlink" viewBox="0,0,256,256" width="48px" height="48px"><g fill="#ffffff" fill-rule="nonzero" stroke="none" stroke-width="1" stroke-linecap="butt" stroke-linejoin="miter" stroke-miterlimit="10" stroke-dasharray="" stroke-dashoffset="0" font-family="none" font-weight="none" font-size="none" text-anchor="none" style="mix-blend-mode: normal"><g transform="scale(5.33333,5.33333)"><path d="M10.5,8c-3.57194,0 -6.5,2.92806 -6.5,6.5v19c0,3.57194 2.92806,6.5 6.5,6.5h27c3.57194,0 6.5,-2.92806 6.5,-6.5v-19c0,-3.57194 -2.92806,-6.5 -6.5,-6.5zM11.47266,11h25.05469l-12.52734,6.77148zM7.7207,12.38086l15.56641,8.41406c0.44489,0.24028 0.98089,0.24028 1.42578,0l15.56641,-8.41406c0.44646,0.58742 0.7207,1.31503 0.7207,2.11914v19c0,1.77865 -1.29361,3.21074 -3,3.45117v-17.20898c-0.00058,-0.52802 -0.27872,-1.01686 -0.73235,-1.28711c-0.45362,-0.27025 -1.01592,-0.28212 -1.48054,-0.03125l-11.78711,6.37109l-11.78711,-6.37109c-0.22061,-0.11972 -0.46774,-0.18218 -0.71875,-0.18164c-0.8261,0.00331 -1.49407,0.67389 -1.49414,1.5v17.20898c-1.70639,-0.24043 -3,-1.67252 -3,-3.45117v-19c0,-0.80411 0.27424,-1.53172 0.7207,-2.11914zM13,22.25977l10.28711,5.56055c0.44489,0.24028 0.98089,0.24028 1.42578,0l10.28711,-5.56055v14.74023h-22z"></path></g></g></svg>